<svg xmlns="http://www.w3.org/2000/svg" version="1.1" xmlns:xlink="http://www.w3.org/1999/xlink" xmlns:svgjs="http://svgjs.dev/svgjs" viewBox="0 0 1422 800"><defs><linearGradient x1="50%" y1="0%" x2="50%" y2="100%" id="ssscribble-grad"><stop stop-color="hsl(162, 100%, 58%)" stop-opacity="1" offset="0%"></stop><stop stop-color="hsl(270, 73%, 53%)" stop-opacity="1" offset="100%"></stop></linearGradient></defs><g fill="none" stroke-width="1.75" stroke="url(#ssscribble-grad)" stroke-linecap="round"><path d="M1816.5 314.2C1613.12 331.58 1455.1 352.96 1408.2 378.28 1490.92 403.66 1666.36 433.07 1860.07 466.47 1993.53 499.98 2011.37 537.48 1908.04 578.79 1724.65 619.94 1533.93 664.48 1408.71 711.83 1495.45 802.61 1846.26 896.23 1976.64 980.39 1712.18 1038.36 1386.22 1064.12 1385.7 1043.95 1688.58 984.37 1913.2 884.98 1798.88 766.13 1464.23 673.49 1256.31 631.46 1356.01 675.31 1640.16 808.75 1812.05 1009.79 1714.64 1221.25 1425.28 1360.9 1176.23 1378.21 1132.91 1257.46 1298.42 1066.08 1524.9 900.91 1649.3 871.82 1597.62 1017.95 1398.07 1275.59 1159.93 1500.38 974.87 1549.83 913 1393.89 963.34 1142.17 1092.25 997.05 1229.5 1081.92 1326.69 1355.64 1371.23 1606.51 1347.99 1634.37 1276.68 1411.31 1167.93 1143.88 1049.08 1080.25 938.27 1298.94 881.93 1459.26 830.38 1602.41 784.04 1690.84 738.48 1700.91 698.21 1629.35 663.07 1494.44 628.58 1334.22 598.74 1191.64 573.26 1107.43 548 1106.99 526.7 1191.03 509.32 1337.05 491.94 1503.19 478.68 1640.56 469.62 1710.73 460.77 1695.23 456.51 1598.59 457.15 1448.63 458.44 1285.87 465.1 1154.65 477.33 1088.76 490.33 1104.2 508.81 1194.77 532.38 1334.5 577.64 1613.87 632.09 1668.5 677.77 1451.69 686.02 1154.37 647.53 1031.71 542.75 1167.19 385.32 1434.81 189.33 1600.81 3.35 1535 -104.06 1283.54 -97.6 1026.06 33.88 926.22 218.45 1030.41 366.26 1247.82 368.21 1427.37 194.08 1463.22 -80.13 1329.47 -291.19 1101.82 -190.6 818.97 111.61 963.23 -314.02 1170.66 -449.91 1234.89 -275.67 1208.5 27.97 1109.04 111.27 956.86 -141.66 792.48 -470.01 645.04 -494.98 520.59 -191.64 437.24 53.19 389.5 -96.8 370.65 -464.21 370.95 -564.36 377.52 -445.84 384.63 -261.04 390.65 -82.74 394.65 15.48 399.66 -6.62 401.73 -143.52 400.36 -429.69 396.85 -479.44 370.01 -197.49 346.09 -36.52 328.71 13.3 307.24 -66.94 281.82 -242.89 256.45 -438.61 227.24 -572.7 194.46 -591.47 161.98 -487.26 126.3 -303.46 87.96 -112.08 50.62 11.73 11.53 22.81 -28.34 -257.91 -100.47 -549.81 -165.17 -456.46 -209.39 -95.83 -224.73 78.73 -203.12 -122.61 -138.92 -436.92 -51.73 -474.48 53.9 -194.57 149.02 107.22 191.43 125.75 162.43 -119.93 44.66 -369.6 -137.78 -366.88 -346.62 -119.46 -513.56 173.2 -572.02 283.53 -499.44 164.74 -322.33 -73.36 -140.22 -236.87 -49.83 -219.17 -126.69 -30.21 -347.26 220.87 -603.39 412.67 -743.8 481.33 -680.2 419.24 -456.41 285.93 -235.94 133.67 -201.09 34.45 -395.38 11.17 -688.48 60.33 -849.48 165.63 -749.5 294.71 -471.81 440.22 -274.57 569.84 -345.74 674.81 -638.5 723.43 -784.95 765.64 -881.46 802.12 -902.03 836.25 -841.27 865.79 -714.35 891.61 -555.04 916.19 -408.51 938.18 -314.43 958.24 -300.62 977.97 -372.49 996.41 -510.71 1013.8 -676.85 1031.18 -822.89 1047.29 -906.1 1061.89 -903.96 1076.16 -818.05 1088.26 -672.89 1097.54 -509.23 1105.57 -370.86 1109.65 -294.98 1108.85 -299.92 1105.71 -383.23 1096.57 -520.45 1080.73 -674.06 1041.33 -879.39 976.1 -799.22 893.66 -512.19 827.63 -269.49 784.06 -274.66 795.11 -500.03 878.6 -748.29 1036.54 -804.88 1245.87 -628.79 1436.26 -346.07 1553.8 -156.41 1538.75 -169.63 1300.87 -467.67 1199.52 -507.9 1588.8 -166.69 1753.19 -0.35 1686.29 30.09 1434.69 -59.79 1228.28 -221.51 1264.21 -370.83 1550.03 -450.71 1831.95 -441.01 1847.17 -343.6 1576.4 -193.9 1327.46 -17.98 1393.28 140.15 1733.04 259.98 1959.93 340.41 1808.06 376.4 1467.03 381.49 1393.22 360.41 1701.66 331.19 1995.87 305.96 1991.55 291.39 1873.68 279.91 1687.42 272.1 1508.68 264.12 1408.7 260.22 1430.85 260.56 1568.33 261.01 1766.64 265.7 1944.36 274.64 2026.41 283.64 1977.53 296.81 1816.61 314.19Q1816.5 314.2 1816.5 314.2" opacity="0.28"></path><path d="M1763.5 704.12C1414.07 737.05 1411.73 772.31 1747.7 807.27 1966.41 839.03 1774.44 864.25 1425.81 876.47 1355.15 877.52 1635.73 857.24 1906.67 811.62 1841.52 755.3 1511.97 681.23 1284.94 602.2 1389.92 546.94 1690.5 523.7 1857.89 555.28 1721.17 648.83 1408.29 801.26 1200.15 990.17 1257.5 1163.16 1503.38 1281.37 1712.12 1300.13 1717.79 1213.91 1510.78 1050.31 1239.91 878.91 1063.75 793.18 1075.3 843.64 1230.89 1032.34 1432.87 1274.81 1555.03 1458.21 1544.18 1478.62 1407.63 1327.48 1205.3 1096.28 1010.51 942.76 863.94 988.31 801.05 1218.44 810.09 1486.8 876.75 1600.62 964.31 1477.25 1044.62 1210.08 1118.62 1024.73 1161.3 1081.07 1174.59 1349.3 1171.75 1604.76 1149.75 1627.01 1118.13 1390.52 1081.65 1115.77 1044.99 1059.17 1012.06 1284.05 979.13 1576.69 950.71 1652.88 923.05 1446.89 890.53 1150.61 849.33 1032.45 790.06 1185.3 714.67 1468.05 610.98 1626.92 477.24 1530.67 337.19 1256.58 191.14 1020.62 67.42 991.27 1.31 1175.95 8.55 1421.22 101.05 1545.16 241.77 1463.17 391.61 1226.86 477.4 983.69 437.5 864.23 266.33 922.71 17.23 1100.96 -185.47 1297.44 -242.23 1397.13 -109.23 1356.02 118.47 1191.69 284.38 975.39 239.82 787.51 -7.79 678.13 -290.34 672.7 -381.98 748.38 -208.13 875.9 72.83 1001.01 180.18 1088.4 -16.57 1127.43 -343.98 1105.84 -473.1 1037.47 -270.21 931.69 37.89 811.14 84.46 692.94 -205.06 573.96 -501.36 473 -443.41 391.42 -107.49 317.73 74.78 259.97 -150.44 213.75 -492.92 170.47 -493.92 133.36 -144.49 100.43 66.94 67.5 -149.66 39.53 -487.18 18.66 -491.38 0.74 -156.11 -4.7 83.52 6.87 -65.25 26.35 -399.62 66.3 -501.31 125.53 -247.26 183.98 70.54 246.06 108.59 294.78 -154.38 306.1 -413.73 272.05 -394.68 178.97 -112.21 37.53 165.71 -140.05 203.26 -318.34 -8.33 -444.8 -259.4 -488.41 -333.57 -426.17 -171.39 -285.42 108.13 -114.33 317.53 6.85 344.13 4.83 197.16 -135.92 -5.7 -371.27 -149.95 -588.43 -148.55 -683.6 -14.17 -598.47 200.62 -389.6 405.81 -185.19 541.8 -132.53 589.08 -285.8 551.96 -557.91 467.62 -766.75 356.2 -761.59 262.32 -547.1 203.12 -291.57 172.26 -213.85 179.3 -388.41 211.83 -683.86 262.6 -849.47 320.81 -741.08 375.91 -451.32 434.74 -251.8 482.29 -331.24 515.23 -623.85 548.16 -848.8 565.69 -788.94 571.01 -507.7 580.05 -264.65 585.04 -277.14 596.36 -519.85 625.93 -775.41 679.87 -816.08 770.47 -612.19 889.39 -326.43 1041.76 -181.57 1210.25 -271.21 1351.67 -515.42 1444.46 -718.74 1451.28 -734.96 1369.39 -552.1 1216.7 -288.98 1052.64 -103.52 968.98 -89.62 1016.56 -236.32 1207.89 -439.9 1457.88 -589.74 1650.1 -599.13 1666.71 -470.27 1500.5 -255.73 1262.06 -46.9 1138.72 86.46 1251.73 114.84 1539.45 45.67 1785.38 -76.55 1782.17 -214.71 1536.18 -314.66 1283.05 -354.16 1293.31 -331.69 1579.46 -252.82 1866.62 -140.5 1852.77 -4.41 1556.44 128.14 1320.91 244.21 1441.11 349.58 1791.2 430.87 1952.76 491.93 1725.9 541.82 1400.3 579.8 1410.9 612.19 1754.9 641.36 1974.94 671.18 1763.61 704.11Q1763.5 704.12 1763.5 704.12" opacity="0.78"></path><path d="M1710.5 433.88C1374.49 464.98 1336.03 480.5 1631.55 481 1897.77 481.61 1811.13 468.07 1479.47 443.25 1278.35 423.28 1423.99 400.36 1735.3 384.17 1871.93 389.18 1683.93 418.55 1366.41 483.61 1220.44 582.19 1369.74 716.41 1648.22 874.94 1797.76 1025.07 1678.61 1148.93 1395.85 1213.72 1162.35 1200.83 1144.6 1109.42 1323.09 961.67 1558.86 817.59 1674.25 725.89 1600.66 739.46 1379.66 869.74 1136.95 1082.09 986.74 1297.8 978.78 1419.48 1094.19 1393.59 1257.31 1227.39 1404.46 1018.23 1467.78 883.07 1436.36 918.54 1322.7 1119.21 1164.49 1377.39 1002.77 1534.52 852.2 1488.27 743.13 1269.43 676.01 1032.89 643.06 962.1 637.46 1118.57 643.87 1398.02 663.48 1587.2 678.23 1538.26 680.7 1285.43 684.89 1041.66 672.32 1012.12 641.22 1231.05 610.12 1511.01 561.22 1606.64 496.46 1442.34 433.41 1156.71 358.97 983.81 280.71 1052.61 215.64 1301.5 163.63 1526.78 140.15 1557.43 150.85 1371.84 204.69 1102.54 301.36 930.89 409.18 959.25 514.84 1153.37 577.43 1374.11 557.78 1485.08 444.89 1414.04 249.81 1206.64 -42.09 892.04 46.22 1026.79 326.46 1266.32 359.29 1325.11 205.08 1266.69 -67.4 1119.59 -282.62 925.57 -299.5 746.9 -98.38 623.55 151.99 570.42 241 588.28 63.71 653.78 -242.49 751.76 -417.14 847.39 -293.96 921.4 84.62 982.42 -394.78 914.61 -285.9 827.8 33.75 759.04 111.23 694.17 -161.14 638.31 -462.81 581.11 -427.5 536.14 -91.49 505.04 119.59 473.94 -56.35 457.43 -390.88 454.06 -343.24 451.92 -50.72 463.98 -438.8 441.81 -374.24 398.61 -66.22 326.48 174.55 220.02 127.03 92.13 -141.82 -56.05 -362.04 -205.11 -332.55 -321.68 -74.91 -389.14 196.53 -383.97 283.89 -308.56 140.73 -176.2 -97.8 -26.67 -258.14 75.93 -221.27 91.68 -19.4 -7.84 236.93 -197.26 407.24 -417.78 427.99 -580.32 309.95 -610.52 133.42 -494.51 -11.71 -287.64 -74.64 -112.6 -27.59 -71.66 101.02 -210.34 279.8 -458.81 453.88 -678.29 590.66 -729.5 703.66 -456.16 673.35 -331.76 616.41 -712.72 575.36 -793.58 550.74 -629.89 544.97 -350.42 540.23 -192.2 553.58 -290.92 584.67 -570.85 615.77 -789.84 663.88 -757.22 729.19 -507.34 795.53 -248.32 879.84 -190.16 979.54 -367.3 1074.63 -634.75 1173.26 -776.42 1260.37 -688.13 1315.73 -434.05 1331.41 -194.94 1292.11 -125.85 1209.24 -260.15 1087.73 -492.97 960 -665.93 882.43 -673.69 884.92 -508.43 995.75 -266.89 1188.8 -68.28 1411.63 -7.73 1574.2 -92.66 1597.99 -271.64 1470.42 -445.17 1254.85 -534.72 1093.7 -507.56 1095.61 -373.17 1292.64 -184.6 1567.91 7.64 1745.74 145.36 1690.81 206.21 1451.77 189.38 1224.23 115.1 1222.42 16.05 1470.35 -91.41 1764.57 -173.08 1834.96 -217.78 1617.02 -228.95 1329.23 -203.1 1282.14 -151.7 1543.59 -79.08 1846.75 1.43 1858.53 80.06 1567.62 163.53 1309.93 236.76 1401.73 296.74 1742.39 356.82 1921.59 402.76 1710.61 433.87Q1710.5 433.88 1710.5 433.88" opacity="0.23"></path><path d="M1657.5 90.08C1336.09 119.36 1265.69 148.27 1514.35 178.67 1806.76 211.58 1822.99 250.82 1552.14 301 1270.66 359.57 1257.09 435.16 1505.56 530.46 1768.65 633.81 1788.51 751.78 1552.26 875.33 1263.38 982.71 1163.73 1068.61 1312.12 1114.03 1575.43 1108.6 1730.94 1048.13 1664.05 938.92 1420.57 815.3 1167.28 701.57 1055.35 639.49 1133.88 662.77 1332.95 777.02 1521.46 963.65 1600.32 1162.82 1524.08 1314.9 1338.62 1358.49 1115.59 1276.42 946.33 1100.59 875.17 912.11 907.47 814.7 1012.55 864.69 1140.33 1056.23 1261.9 1295.87 1334.09 1462.93 1348.98 1460.08 1312.19 1291.1 1234.06 1056.49 1135.69 909.8 1020.07 958.14 910.66 1179.54 816.22 1434 724.86 1546.41 652.1 1437.16 596.17 1180.64 542.73 970.89 502.11 966.02 472.84 1178.05 443.56 1444.63 426.34 1556.45 422.76 1433.61 421.68 1169.7 438.27 958.89 474.42 945.32 513.66 1131.27 568.84 1377.44 631.36 1513.61 676.62 1452.37 702.76 1232.27 688.82 990.65 623.21 862.69 501.55 913.29 331.92 1095.48 156.08 1304.66 4.34 1418.51 -73.07 1382.09 -47.02 1212.72 78.66 990.01 259.81 807.56 403.39 727.07 439.43 768.76 322.22 896.55 -22.45 1124.84 -65.63 1155.96 257.7 949.2 294.12 780.41 110.24 634.57 -179.17 530.4 -353.66 471.16 -277.87 458.61 -10.45 479.19 204.34 527.7 165.42 584.16 -114.18 636.1 -379.16 689.1 -379.58 726.22 -109.39 746.24 137.73 760.59 -393.62 722.2 -38.49 681.63 170.7 652.36 34.36 617.13 -285.69 574.62 -439.45 529.98 -259.8 474.22 58.62 404.46 194.2 329.25 20.4 237.9 -273.21 131.8 -400.26 26.76 -236.01 -81.68 65.08 -180.93 247.19 -252.25 166.45 -289.17 -84.53 -278.02 -295.85 -221.93 -291.42 -122.75 -81.07 0.92 192.09 107.9 345.58 173.7 303.58 164.46 109.87 68.73 -97.07 -100.53 -193.82 -302.63 -131.85 -468.81 57.05 -547.06 280.2 -501.17 457.11 -353.3 523.35 -163.18 480.86 -24.26 356.91 -18.28 213.42 -160.47 100.59 -395.75 38.67 -604.07 47.69 -678.56 113.49 -572.1 224.17 -351.95 352.17 -150.88 476.27 -106.11 598.62 -258.77 698.31 -518.9 775.03 -716.18 840.7 -713.97 889.27 -511.81 927.05 -253.68 961.08 -136.58 991.36 -251.29 1020.63 -517.85 1049.9 -729.93 1077.47 -722.18 1100.46 -506.67 1119.7 -244.34 1127.31 -126.42 1116.85 -227.48 1095.35 -470.63 1049.89 -678.08 980.65 -709.95 909.66 -546.79 833.65 -293.11 773.67 -102.66 758.58 -78.31 799 -221.48 908.96 -435.01 1069.83 -600.47 1259.99 -622.13 1429.07 -494.27 1516.71 -275.32 1494.07 -66.89 1359.07 49.77 1177.79 40.77 1029.06 -74.74 1005.41 -235.54 1140.48 -383.81 1383.95 -457.89 1612.25 -439.32 1688.86 -335.38 1568.01 -178.1 1325.32 -9.36 1145.41 144.96 1169.3 252.11 1406.7 305.62 1683.81 308.27 1788.46 271.85 1627.86 215.21 1348.21 142.39 1202.96 76.41 1346.47 26.15 1750.52 -26.72 1327.55 -27.3 1401.46 5.26 1727.3 31.87 1866.72 60.8 1657.61 90.07Q1657.5 90.08 1657.5 90.08" opacity="0.70"></path><path d="M1604.5 419.01C1298.78 446.46 1201.05 486.99 1398.9 539.72 1696.32 592.03 1802.47 655.25 1623.09 726.49 1322.26 793.19 1168.27 861.18 1281.27 922.83 1554.68 967.79 1746.68 993.1 1702.33 989.52 1456.18 958.5 1195.95 895.17 1102.06 804.22 1225.3 709.62 1461.53 619.79 1641.32 559.93 1651.44 555.86 1483.34 616.4 1239.75 744.02 1042.2 912.2 986.45 1090.84 1074.99 1231.79 1254.61 1289.8 1425.63 1246.86 1513.68 1111.7 1490.08 940.71 1364.43 796.57 1186.83 749.28 1000 832.48 858.59 1023.03 782.99 1246.81 774.16 1400.31 819.58 1413.17 893 1273.76 985.24 1059.88 1065.9 885.5 1123.6 858.04 1165.79 1003.86 1180.6 1247.28 1174.22 1447.55 1155.32 1481.49 1125.7 1326.15 1092.6 1077.66 1056.23 903.67 1022.94 920.84 995.49 1125.05 968.05 1377.62 947.11 1502.25 930.03 1419.45 909.68 1186.28 886.64 955.57 853.78 869.54 808.4 974.97 742.76 1197.66 650.79 1397.59 543.3 1460.41 413.9 1348.18 274.1 1126.96 153.13 908.67 61.33 802.41 25.11 846.53 55.64 1010.72 153.31 1204.29 297.85 1334.98 433.16 1349.56 517.96 1240.09 502.29 1054.47 374.98 853.88 166.28 708.26 -49.29 652.71 -173.8 692.35 -152.31 800.93 12.83 934.6 224.02 1061.01 361.57 1138.61 322.87 1154.14 114.5 1108.96 -148.31 1014.15 -296.02 892.08 -226.6 753.67 11.25 624.52 237.28 516.32 261.52 427.04 51.65 365.58 -237.23 327.01 -295.27 302.56 177.07 300.78 -182.88 294.93 -386.16 289.86 -291.21 274.32 14.5 246.88 220.3 219.44 121.76 180.76 -173.87 132.38 -378.66 85.33 -293.97 31.56 -5.53 -24.58 226.11 -73.51 199.07 -116.54 -45.49 -145.79 -292.4 -157.02 -326.32 -144.31 -125.27 -102.6 156.67 -41.96 307.98 40.8 236.48 134.16 6.69 211.18 -204.89 262.26 -255.18 265.16 -113.36 207.37 133.25 88.94 344.79 -76.72 421.94 -249.66 339.56 -395.94 163.37 -471.56 -19.48 -452.01 -113.31 -340.66 -85.28 -172.49 51.98 -19.25 244.03 59.68 427.27 16.56 563.18 -142.67 619.32 -362.83 603.19 -551.52 528.08 -620.16 428.37 -536.28 333.03 -338.13 247.81 -137.01 196.94 -42.61 180.29 -120.88 189.55 -336.27 223.06 -572.07 269.48 -688.14 327.53 -612.75 385.4 -390.15 436.33 -162.38 489.36 -84.95 530.67 -212.3 558.12 -464.85 585.56 -669.11 598.48 -683.57 598.91 -504.19 601.44 -250.27 596.23 -86.8 589.94 -110.1 595.26 -299.76 612.58 -530.09 653.09 -660.45 719.51 -617.54 819.11 -425.31 951.87 -191.32 1094.77 -31.77 1240.87 -22.24 1361.05 -151.25 1422.27 -350.54 1409.89 -514.51 1316.3 -569.16 1175.37 -493.3 1024.15 -318.62 926.12 -115.22 937.31 52.33 1068.79 129.53 1287.61 107.5 1499.78 2.52 1616.45 -138.43 1571.75 -267.35 1392.63 -355.71 1176.56 -375.4 1063.27 -329.04 1142.08 -226.89 1380.24 -93.32 1634.53 46.33 1730.56 182.34 1601.65 292.05 1339.83 370.62 1158.85 421.76 1210.57 445.19 1472.94 450.01 1753.13 429.57 1236.02 381.28 1407.81 377.15 1708.9 377.87 1810.32 391.56 1604.61 419Q1604.5 419.01 1604.5 419.01" opacity="0.10"></path><path d="M1551.5 706.66C1262.51 732.27 1142.34 755.49 1287.9 774.91 1570.85 792.46 1745.84 802.67 1671.86 802.21 1410.12 795.72 1168.34 774.31 1124.32 736.05 1300.85 691.93 1554.51 634.15 1697.84 568.59 1633.39 513.3 1404.4 468.86 1160.59 449.62 1042.38 468.7 1109.93 530.61 1302.96 638.42 1508.79 776.43 1605.02 932.4 1547.69 1078.57 1364.52 1179.45 1142.9 1215.24 973.68 1170.48 909.91 1059.62 963.46 908.53 1093.47 765.59 1252.91 688.68 1375.83 708.51 1428.33 833.76 1402.99 1025.9 1308.39 1223.45 1174.49 1349.98 1019.73 1352.59 879.23 1228.84 769.05 1030.74 688.61 857.1 645.25 791.41 629.7 877.88 637.32 1080.74 656.11 1304.07 675.64 1431.44 701.84 1393.44 719.01 1208.19 723.28 977.92 728.15 840.19 718.26 876.56 692.65 1072.05 667.03 1310.01 626.31 1444.07 571.55 1398.75 517.39 1202.94 451.06 970.04 376.57 827.89 308.73 848.14 242.5 1012.02 188.41 1224.91 157.49 1379.15 155.36 1393.39 191.41 1265.5 257.21 1053.61 354.42 854.13 467.13 746.94 558.98 766.98 612.75 894.77 598.61 1067.83 506.64 1221.52 345.6 1292.22 149.51 1259.91 -17.14 1135.94 -105.85 961.31 -75.65 786.93 59.99 649.58 249.64 581.45 402.57 584.8 429.65 651.09 304.91 752.95 72.41 861.23 -147.28 961.58 -239.65 1027.7 -144.28 1053.32 76.67 1041.17 284.78 993.57 330.46 922.43 168.36 831.34 -101.96 735.38 -292.94 643.5 -263.39 550.46 -33.83 469.39 218.01 401.57 282.11 337.27 99.58 285.04 -188.42 243.17 -339.05 202.75 -221.48 170.11 67.5 144.5 268.39 118.89 205.17 100.91 -57.99 91.43 -294.91 83.41 -302.19 86.48 -80.06 102.47 193.53 121.98 304.53 155.61 181.23 202.18 -75.65 247.59 -265.45 298.06 -253.67 344.77 -49.31 371.53 209.48 375.86 361.68 345.98 326.2 278.32 140.26 171.39 -71.9 31.57 -192.03 -116.18 -149.8 -256.17 25.37 -359.12 254.42 -399.14 431.68 -366.21 495.26 -262.44 434.51 -121.64 290.74 21.03 131.65 114.77 7.86 116.86 -32.42 17.68 13.8 -162.66 132.68 -362.4 288.45 -515.03 444.29 -557.94 583.62 -473.63 679.7 -295.03 731.06 -101.91 742.59 7.23 723.46 -23.64 689.03 -192.3 639.34 -419.64 593.57 -595.78 559.11 -625.96 524.73 -493.74 506.03 -268.39 503.06 -77.62 501.34 -37.3 513.56 -173.9 539.16 -411.85 564.78 -607.39 603.17 -641.23 654.77 -498.47 707.63 -263.14 775.47 -70.32 858.15 -22.38 940.91 -139.84 1034.13 -350.93 1130.29 -539.36 1211.2 -611.4 1275.83 -529.07 1308.7 -336.67 1301.75 -119.79 1248.97 24.84 1151.71 45.1 1037.92 -58.56 922.97 -231.28 843.54 -396.76 836.76 -495.36 915.14 -486.69 1075.56 -379.54 1271.29 -206.36 1450.24 -23.29 1544.61 121.13 1514.63 199.46 1369.36 198.85 1170.56 134.61 1025.59 25.1 1011.83 -92.75 1158.59 -191.28 1397.42 -259.62 1608.21 -280.7 1666.59 -257.74 1537.27 -196.43 1299.35 -108.72 1113.73 -9.04 1120.67 100.9 1327.11 204.16 1598.45 294.75 1736.26 379.48 1637.56 448.34 1373.86 503.12 1161.57 551.89 1176.31 590.84 1418.24 623.17 1686.51 653.64 1752.41 681.04 1551.61 706.65Q1551.5 706.66 1551.5 706.66" opacity="0.15"></path><path d="M1498.5 328.63C1227.17 352.41 1089.67 364.61 1183.89 366.05 1435.92 368.05 1653.62 360.69 1681.7 346.41 1503.09 336.08 1242.59 324.03 1072.6 315.91 1095.26 320.45 1285.16 338.6 1512.3 377.36 1640.23 437.56 1589.84 523.25 1396.03 633.68 1159.61 754.42 1003.4 882.17 991.74 1000.56 1118.59 1087.12 1309.36 1131.25 1470.39 1119.18 1537.33 1053.88 1480.19 942.74 1328.72 808.84 1131.74 693.16 958.24 623.16 852.66 628.71 831.5 717.92 888.62 875.59 992.74 1063.08 1119.89 1221.29 1228.59 1303.51 1298.08 1277.15 1325.11 1152.86 1303.8 972.98 1246.31 808.98 1159.08 735.46 1059.77 786.94 961.44 952.56 860.09 1164.33 772.11 1333.83 699.73 1381.72 632.01 1285.03 578.66 1086.57 537.25 882.77 497.83 780.59 466.82 833.14 443.04 1019.05 419.25 1241.85 403.26 1381.98 396.36 1370.59 391.45 1216.22 399.15 997.1 422.01 819.25 449.55 761.96 493.46 846.23 551.66 1024.61 606.84 1217.61 663.92 1335.34 709.93 1331.06 726.2 1208.11 707.32 1016.25 641.24 828.05 532.7 704.01 386.09 682.78 222.29 758.76 81.51 902.58 -10.99 1057.88 -23.87 1174.87 47.67 1224.71 188.52 1191.44 354.33 1089.4 474.62 940.33 502.08 781.51 407.05 643.56 217.94 542.51 0.69 493.79 -150.91 493.77 -164.01 536.86 -30.85 605.88 184.34 683.75 356.95 766.48 387.95 834.6 242.59 882.22 -1.97 914.05 -207.36 923.12 -243.44 913.77 -86.87 890.89 162.26 857.21 331.7 818.55 294.44 774.14 69.73 730.98 -186.99 692.53 -285.91 652.89 -150.82 620.51 120.5 596.72 314.99 572.94 283.99 558.31 59.19 551.63 -190.57 543.75 -277.36 541.27 -143.9 540.82 115.3 534.63 321.21 524.26 344.2 504 177.91 470.21 -59.26 418.91 -214.29 345.87 -196.22 257.05 -15.38 148.74 222.57 26.96 397.36 -89.96 423.64 -196.9 306.48 -276.65 109.8 -313.31 -60.82 -300.01 -129.15 -233 -70.03 -129.09 91.1 -2.92 289.04 114.97 464.23 185.86 560.22 189.47 563.76 111.57 484.46 -33.47 359.85 -215.25 232.28 -383.85 125.52 -484.62 71.32 -486.46 73.18 -383.66 125.82 -216.68 216.09 -44.2 324.36 61.33 445.81 48.22 558.51 -84.96 654.47 -291.37 740.61 -483.18 806.4 -578.84 855.35 -530.78 895.51 -362.14 925.59 -150.02 950.49 -0.31 972.87 6.42 994.98 -136.06 1018.76 -358.85 1042.55 -544.8 1067.43 -595.01 1091.39 -488.17 1112.81 -279.67 1128.38 -74.19 1133.08 31.71 1128.99 -6.95 1107.27 -165.07 1064.29 -363.42 1011.49 -515.65 941.03 -551.68 860.79 -460.75 793.73 -279.32 743.64 -80.06 730.02 65.45 767.19 113.05 859.28 53.89 1002.68 -79.54 1166.91 -242.28 1326.92 -373.48 1440.27 -434.61 1470.8 -412.09 1407.49 -312.41 1263.49 -165.56 1096.72 -0.48 965.25 143.31 934.17 242.63 1030.55 288.74 1227.64 280.01 1449.09 230.11 1591.05 148.37 1587.86 58.53 1434.31 -23.15 1217.57 -94.53 1056.08 -140.03 1055.39 -159.02 1227.81 -156.56 1480.47 -132.47 1660.23 -93.86 1650.72 -42.59 1456.21 13.5 1206.17 68.69 1081.82 127.82 1175.54 180.83 1429.98 225.15 1659.52 270.03 1693.03 304.84 1498.61 328.62Q1498.5 328.63 1498.5 328.63" opacity="0.86"></path><path d="M1445.5 105.51C1192.69 127.47 1043.05 152.7 1089.07 182.01 1297.79 212.62 1530.5 249.73 1642.34 295.43 1568.87 345.19 1355.06 406.36 1126.5 480.06 1005.12 557.83 1051.42 646.32 1227.36 741.78 1438.95 831.32 1570.98 915.93 1562.4 985.57 1418.96 1028.98 1207.71 1041.64 1018.84 1016.49 919.69 958.41 941.96 868.89 1060.94 760.1 1229.76 658.51 1377.69 578.38 1456.38 542.93 1446.83 568.45 1352.71 656.65 1206.34 798.1 1037.87 961.44 890.67 1115.14 788.79 1219.18 739.73 1243.55 745.32 1180.2 790.61 1043.83 867.24 881.32 951.34 741.72 1027.63 677.88 1097.36 719.76 1144.36 858.9 1168.6 1052.32 1177.68 1228.9 1168.79 1324.49 1148.2 1298.14 1119.42 1160.63 1086.82 964.78 1055.17 793.41 1021.57 724.95 992.89 790.56 970.93 966.05 948.98 1173.19 934.27 1316.09 925.11 1334.28 914 1222.78 904.47 1030.58 891.84 838.85 871.03 721.56 839.25 722.17 790.35 832.24 726.28 1007.98 640.29 1176.97 532.51 1277.72 418.17 1278.39 296.97 1178.49 184.3 1014.33 102.96 833.15 62.38 690.05 77.6 619.28 145.64 632.62 260.16 718.01 397.23 843.97 512.19 980.96 576.17 1088.69 556.94 1144.85 449.48 1142.35 274.14 1081.78 79.4 979.33 -65.49 848.59 -112.2 714.57 -35.91 594.84 130.08 495.39 320.06 428.52 443.92 393.29 432.92 386.84 283 403.17 55.32 433.09 -136.7 476.5 -197.29 520.61 -88.31 559.51 127.86 599.5 331.18 629.07 396.18 647.19 275.87 663.23 36.7 668.38 -176.35 663.6 -226.72 657.9 -79.3 643.86 173.5 621.91 360.15 599.96 357.72 570.61 174.95 533.55 -69.57 495.58 -216.26 448.3 -177.83 390.87 20.35 331.35 258.99 261.11 403.45 181.29 380.4 102.57 211.93 19.46 -1.47 -61.99 -150.16 -129.97 -154.69 -183.4 -18.95 -213.01 195.58 -213.85 390.85 -181.98 490.7 -116.38 465.05 -30.49 336.17 70.84 166.19 170.18 15.33 241.24 -56.18 271.68 -30.82 245.43 81.69 160.51 244.69 25.4 412.56 -137.51 596.62 -344.32 585.7 -326.68 456.84 -104.18 358.87 40.4 279.25 122.43 226.22 105.7 195.73 -11.1 194 -194.37 214.2 -382.51 251.79 -504.99 299.94 -516.13 350.95 -407.35 408.11 -224.11 460.51 -38.36 504.4 68.83 549.29 46.35 583.35 -98.72 605.31 -305.85 627.27 -481.38 636.59 -544.82 634.47 -472.07 633.34 -296.38 623.08 -94.05 607.33 51.95 597.72 86.82 590.23 1.73 592.47 -162.43 612.08 -343.48 652.79 -468.34 721.31 -494.15 812.37 -414.24 929.08 -256.77 1063.1 -74.67 1190.26 81.29 1300.78 165.92 1371.18 164.43 1383.66 83.25 1332.35 -46 1221.74 -183.41 1085.27 -298.95 952.41 -359.75 868.63 -356.51 872.02 -292.28 970.91 -182.02 1147.67 -49.01 1343.58 91.18 1496.93 213.38 1545.47 305.3 1468.52 364.28 1294.55 386.62 1099.58 379.25 983.38 345.66 1005.76 298.15 1170.5 246.66 1400 189.24 1582.8 139.74 1618.28 101.8 1486.27 67.93 1258.12 47.43 1068.37 39.07 1038.34 34.78 1191.43 39.8 1440.29 51.95 1627.45 65.4 1632.2 83.55 1445.61 105.5Q1445.5 105.51 1445.5 105.51" opacity="0.67"></path><path d="M1392.5 521.63C1158.98 541.75 1002.34 570.66 1005.27 607.48 1163.01 643.73 1384.79 686.61 1551.68 734.03 1581.25 778.27 1458.78 823.21 1248.77 864.72 1047.75 897.09 947.78 919.31 984.01 926.17 1134.67 917.21 1325.57 888.01 1473.97 837.13 1524.65 773.8 1456.93 696.29 1301.54 612.96 1109.16 541.63 946.16 487.44 856.89 464.27 858.46 482.87 940.76 545.83 1069.01 651.84 1210.91 784.72 1321.71 929.62 1378.05 1061.17 1373.6 1150.66 1310.32 1181.49 1206.68 1142.44 1075.85 1043.74 944.24 904.66 828.49 760.47 731.67 655.94 665.94 619.82 628.98 670.47 616.72 798.38 623.87 971.99 641.62 1141.39 670.91 1252.33 699.84 1269.79 723.07 1184.2 748.65 1025.86 764.27 846.3 768.37 710.89 772.49 673.31 764.71 748.78 744.59 913.05 724.46 1104.08 692.47 1246.57 649.16 1289.34 605.86 1219.65 551.61 1063.8 488.08 878.77 426.9 725.29 360.68 653.79 294.89 681.5 240.62 796.4 197.74 955.7 175.12 1107.29 177.2 1209.61 208.92 1230.45 272.7 1168.02 355.41 1039.01 454.94 878.6 554.75 725.64 627.38 609.02 660.71 552.84 636.36 560.37 551.23 625.51 412.8 726.91 244.52 839.71 89.9 947.9 -17.51 1026.77 -42.85 1066.42 22.65 1065.78 163.25 1025.13 334.67 954.34 469.11 859.29 517.33 754.82 448.7 651.77 282.35 550.77 75.05 463.98 -90.35 393.72 -141.33 335.79 -54.46 294.04 135.19 265.12 333.85 245.88 446.71 234 409.37 225.47 234.72 221.23 7.01 215.92 -154.7 207 -161.61 199.06 -7.01 185.51 226.5 165.39 403.9 145.27 425.94 119.05 286.53 87.79 62.85 57.51 -119.93 24.21 -167.54 -9.5 -58.55 -38.93 150.4 -64.33 355.84 -81.61 465.9 -89.2 434.39 -83.2 286.85 -60.16 90.34 -24.78 -63.02 27.99 -111.6 95.94 -39.18 165.95 124.73 238.35 317.38 302.39 479.01 342.17 557.55 352.89 540.34 324.75 439.69 256.32 296.82 149.83 158.11 15.27 54.81 -123.89 17.61 -250.42 48.65 -339.34 139.5 -370.65 267.4 -336.9 405.86 -241.25 540.99 -109.26 648.49 31.64 720.94 142.72 759.42 187.23 764.53 150.02 746.07 32.97 706.67 -133.35 660.13 -305.76 615.2 -432.04 566.58 -471.13 528.11 -409.29 501.99 -263.59 472.13 -11.36 472.93 10.41 498.48 -252.85 518.61 -417.15 547.51 -490.63 585.59 -449.12 624.75 -309.76 674.92 -124.27 736.95 41.84 801.01 135.23 876.77 127.41 961.89 27.86 1043.33 -130.17 1125.62 -290.69 1199.91 -403.87 1253.26 -439.79 1282.17 -387.29 1276.75 -264.82 1237.36 -102.69 1161.95 55.89 1057.85 175.56 950.4 235.57 852.44 227.16 790.36 161.44 788.09 53.65 852.89 -66.12 982.55 -172.63 1147.63 -252.27 1315.63 -287.6 1440.07 -277.41 1481.07 -225.45 1424.96 -141.3 1284.31 -38.96 1112.62 75.37 968.18 184.97 913.67 281.33 980.16 365.26 1149.91 428.47 1361.17 472.31 1523.48 500.32 1568.13 513.84 1469.48 517.98 1150.08 498.29 1579.91 496.06 1392.61 521.62Q1392.5 521.63 1392.5 521.63" opacity="0.65"></path><path d="M1339.5 673.71C1089.64 710.95 1517.64 698.67 1377.82 660.26 1183.06 628.54 1002.02 587.37 898.43 538.82 903.28 493.21 1007.78 447.07 1167.23 406.58 1329.86 381.99 1437.24 374.53 1459.53 391.09 1393.16 434.5 1259.04 506.2 1096.19 604.62 939.24 717.99 826.83 840.27 776.1 956.73 790.05 1047.94 857.51 1103.36 956.05 1110.61 1070.26 1068.11 1171.56 979.56 1244.65 859.02 1286.24 734.74 1288.63 628.45 1257.67 567.12 1197.99 570.43 1120.28 641.4 1035.22 770.12 942.35 927.26 855.26 1079.05 778.39 1186.59 705.07 1220.38 644.55 1170.18 595.95 1046.74 551.44 887.13 516.15 734.45 488.01 636.08 461.21 625.66 439.06 707.77 420.77 860.05 395.47 1104.11 372.22 1147.23 382.32 928.89 396.42 764.93 423.05 644.38 463.18 596.2 506.85 629.54 561.45 730.6 622.61 868.58 699.37 1065.57 737.55 1116.94 651.99 957.91 550.71 814.91 422.17 678.26 281.79 569.44 157.07 500.14 64.49 478.75 26.56 501 53.31 561.23 142.89 643.63 278.24 732.95 419.49 822.75 533.24 896.14 580.56 946.66 539.22 975.18 414.11 977.15 235.16 956.52 59.39 916.24 -60 861.89 -78.26 799.91 11.91 729.47 181.04 659.56 365.47 593.99 486.65 527.48 494.55 468.52 377.7 418.03 181.96 368.62 -13.08 327.51 -120.68 294.42 -90.83 261.85 65.93 236.42 279.5 218.13 446.28 199.83 488.37 189.09 391.38 186.03 200.63 183.48 6.46 189.47 -106.09 204.37 -92.27 220.35 41.26 245.42 236.39 278.74 419.08 311.11 519.4 348.54 507.67 387.28 393.23 417.55 225.18 440.99 66.06 451.25 -34.99 441.86 -42.84 410.73 39.48 354.03 188.38 275.32 358.91 174.71 507.24 58.74 604.66 -56.75 631.23 -164.28 592.03 -248.5 499.39 -294.74 382.55 -296.21 268.99 -248.52 173.26 -161.32 117.32 -45.05 105.08 78.9 133.92 180.25 197.49 239.82 282.8 238.58 385.26 171.47 488.37 48.08 583.29 -108.05 673.02 -259.45 746.57 -372.44 804.06 -416.13 851.7 -378.3 886.31 -266.52 911.69 -109.63 931.41 44.54 947.01 153.4 961.66 181.04 974.83 115.54 989.96 -25.33 1008.25 -199.85 1026.55 -352.16 1047.57 -432.46 1070.04 -418.47 1091.02 -316.5 1110.54 -158.45 1125.32 8.22 1134.45 138.74 1133.74 197.71 1119.3 174.27 1095.01 77.07 1053.96 -62.79 995.95 -206.53 932.73 -321.86 860.54 -377.93 788.12 -364.95 732.83 -287.31 698.4 -163.3 697.74 -19.97 738.16 119.62 821.31 228.54 943.2 292.66 1082.93 307.02 1224.9 274.43 1341.53 207.2 1404.74 114.72 1401.03 17.56 1325.24 -69.63 1198.52 -141.87 1048.36 -186.34 918.5 -201.56 855.18 -189.93 880.73 -153.31 998.08 -98.68 1173.5 -28.15 1356.47 48.9 1484.35 126.21 1509.53 206.47 1421.16 280.13 1248.81 345.04 1064 407.28 939.16 459.89 932.34 503.49 1051.92 544.53 1251.45 578.34 1445.83 606.09 1546.5 633 1506.34 655.41 1339.61 673.7Q1339.5 673.71 1339.5 673.71" opacity="0.85"></path><path d="M1286.5 231.64C937.08 264.57 930.37 270.53 1249.68 257.8 1478.73 254.42 1328.03 253.45 992.6 280.38 829.02 350.22 984.16 477.32 1257.65 659.98 1398.25 844.51 1280.53 995.3 1022.63 1039.27 781.42 951.04 694.4 756.68 751.35 559.97 903.2 503.8 1048.44 642.77 1134.21 917.26 1169.71 1133.92 1145.68 1131.44 1096 895.18 1029.15 634.67 972 582.17 939.07 807.05 906.14 1099.69 898.99 1175.11 903.74 977.98 891.32 684.56 855.44 541.71 762.88 637.77 620.04 883.88 420.57 1078.5 217.96 1095.69 110.26 933.8 150 693.16 348.06 496.79 562.79 405.71 641.47 436.48 466.58 536.48 158.8 672.96 -25.86 779.84 113.57 836.16 424.86 857.28 556.82 836.93 315.07 797.34 -16.95 745.91 -16.91 698.58 332.5 665.65 543.94 632.71 333.42 615.75 4.93 605.07 -21.61 582.56 285.36 543.02 558.25 464.85 519.06 351.48 242.82 190.38 31.75 3.14 70.15 -147.62 321.03 -225.69 580.32 -177.8 705.26 -24.61 647.94 176.98 497.31 304.61 324.46 253.18 227.05 29.04 215.72 -241.2 269.92 -361.44 362.01 -237.39 452.06 43.3 551.79 227.77 622.53 145.75 655.47 -146.85 688.4 -371.8 681.97 -312.69 644.35 -39.49 616.4 209.5 584.21 230.78 587.06 38.27 655.42 -212.08 807.04 -321.55 1030.64 -231.1 1232.04 -0.11 1336.68 233.29 1254.94 364.69 1038.83 363.88 826.96 260.37 822.79 126.59 1068.12 -5.3 1373.91 -78.17 1437.31 -90.95 1188.6 -60.81 900.33 0.05 939.49 65.53 1280.66 140.37 1497.94 198.7 1286.61 231.63Q1286.5 231.64 1286.5 231.64" opacity="0.43"></path><path d="M1233.5 155.01C912.09 184.28 838.83 231.5 1071.35 299.81 1360.27 373.89 1405.04 476.5 1181.06 605.24 887.35 729.49 768.64 852.53 879.82 939.65 1120.15 959.42 1298.15 896.72 1313.85 752.83 1171.94 590.44 956.15 462.32 764.72 448.94 634.49 579.81 595.01 812.62 614.31 1033.16 677.53 1109.17 740.7 989.55 779.42 740.57 818.93 543.88 824.86 542.02 795.59 754.05 766.32 1020.63 703.24 1131.02 608.52 1014.81 514.6 759.21 398.18 541.27 284.23 487.98 214.21 615.1 205.48 826.14 290.6 993.92 436.92 1046.19 610.68 958.44 714.23 786.43 660.16 584.21 447.46 424.98 176.65 335.65 34.99 313.39 127.45 343.67 399.71 393.79 602.22 462.98 540.8 516.25 240.58 543.03 -3.23 568.02 64.09 565.78 385.5 536.51 594.7 507.25 463.27 452.34 155.68 372.15 -8.48 290.18 137.71 183.67 437.54 63.75 634.39 -37.09 577.32 -115.59 354.36 -138.47 134.96 -94.27 84.27 22.91 208.67 186.76 438.39 320.42 649.48 373.49 770.86 290.78 793.12 92.54 736.66 -144.74 654.75 -293.35 554.58 -261.57 484.57 -60.31 452.64 183.99 428.84 288.95 434.51 172.7 463.77 -93.85 493.04 -305.93 544.52 -298.21 623.51 -90.26 710.63 170.03 833.88 306.35 984.78 251.82 1117.43 52.75 1222.11 -153.81 1245 -254.22 1168.77 -210.37 999.71 -47.55 808.34 153.19 722.27 335.46 807.62 440.18 1057.47 465.52 1310.94 423.53 1394.31 348.69 1218.97 275.16 940.59 197.15 810.99 147.78 986.37 128.9 1305.26 115.79 1442.72 125.73 1233.61 155Q1233.5 155.01 1233.5 155.01" opacity="0.64"></path><path d="M1180.5 610.17C891.51 635.78 769.83 678.56 902.17 732.32 1172.78 779.94 1354.97 825.53 1322.11 853.27 1104.69 854.63 853.8 817.11 714.77 732.83 742.6 627.09 897.34 503.84 1077.19 401.6 1215.23 369.46 1248.16 426.44 1188.48 579.39 1059.3 779.61 909.44 965.22 776.27 1051.72 653.3 995.06 567.18 813.16 510.97 594.21 464.65 467.18 432.26 505.56 406.65 701.05 381.04 939.01 363.42 1071.16 361.43 1029.64 369.34 843.56 408.87 616.35 487.45 459.69 576.24 433.39 683.92 534.5 773.62 698.77 793.83 866.31 724.13 963.66 552.52 970.23 339.1 894.01 154 763.48 99.5 619.4 211.86 473.26 439.78 358.26 638.42 278.59 652.51 221.63 455.74 188.97 175.25 167.58 33.02 153.51 149.51 136.65 438.5 111.04 639.39 85.43 579.81 52.27 329.71 18.05 93.92 -8.86 64.7 -22.79 246.84 -10.22 512.82 25.06 685.09 97.87 682.83 204.53 527.11 309.15 327.64 402.91 189.75 445.56 156.06 405.43 236.52 277.72 379.79 83.52 554.9 -107.41 704.79 -231.51 810.35 -224 884.47 -86.14 921.97 126.46 941.98 302.68 950.98 334.37 963.78 197.08 989.39 -40.85 1015 -236.39 1052.2 -269.64 1091.51 -132.76 1119.81 96.06 1128.92 292.56 1099.2 368.03 1038.04 300.32 930.34 137.68 794.7 -35.86 690.89 -162.15 647.17 -188.78 714.39 -123.07 885.82 12.73 1115.66 172.75 1298.08 317.96 1327.05 441.72 1177.79 521.42 930.59 564.45 767.18 581.09 810.91 582.1 1056.55 582.77 1316.56 577.32 1381.41 584.55 1180.61 610.16Q1180.5 610.17 1180.5 610.17" opacity="0.08"></path><path d="M1127.5 609.1C874.7 631.05 724.62 636.08 761.66 623.04 955.52 607.22 1177.79 569.61 1302.35 511.18 1274.21 453.53 1112.23 385.9 903.5 324.39 723.86 294.87 641.29 303.95 659.61 368.93 760.38 484.77 891.5 643.22 1007.72 812.18 1101.33 940.59 1144.05 994.88 1144.39 945.89 1115.32 810.14 1067.77 626.28 1019.34 466.54 964.44 405.79 922.76 472.56 900.8 648.05 878.85 855.19 877.67 995.91 891.17 1015.08 898.19 911.59 905.81 730.6 896.84 544.66 858.45 409.61 779.57 366.3 652.13 410.7 502.07 524.18 339.43 659.85 209.89 777.84 162.8 865.43 219.33 898.63 376.12 883.89 561.99 830.52 704.28 753.47 716.33 671.25 575.68 579.75 340.92 500.01 138.59 438.31 93.07 377.06 238.7 334.75 491.5 312.8 678.15 290.85 678.11 290.29 506.71 310.13 270.83 330.43 119.79 370.24 129.16 423.69 286.36 467.87 505.91 508.76 685.95 528.3 768.46 509.2 733.64 444.49 621.79 328.13 469.44 181.38 340.99 19.67 265.76 -116.66 241.38 -183.93 270.95 -160.32 330.9 -41.38 415.2 128.45 498.76 296.94 566.98 391.99 637.33 364.39 685.23 219.27 707.19 12.14 729.16 -163.38 724.13 -225.75 695.19 -156.57 668.38 11.62 624.75 207.98 578.49 359.84 556.57 424.95 563.14 390.36 621.33 284.81 730.37 138.71 890.33 6.29 1071.45 -80.78 1212.1 -116.99 1272.99 -94.56 1213.37 -31.2 1056.21 64.14 856.35 167.92 715.21 263.61 721.88 360.09 885.37 437.64 1129.71 494.86 1309.62 549.3 1314.19 587.14 1127.61 609.09Q1127.5 609.1 1127.5 609.1" opacity="0.66"></path><path d="M1074.5 154.13C781.78 176.09 842.5 183.34 1104.41 193.15 1226.4 215.52 1248.01 256.54 1175.1 323.35 1032.09 409.93 867.32 521.49 723.23 648.94 590.15 818.18 623.86 893.35 705.86 738.55 767.67 593.55 813.01 454.95 837.21 365.91 860.08 360.17 862.5 442.77 844.21 595.05 825.91 769.58 787.77 906.42 730.4 967.02 671.69 940.42 593.08 836.27 499.56 689.18 413.21 531.26 328.38 402.51 264.41 324.49 240.04 302.86 264.93 333.66 348.46 398.54 468.57 489.61 611.65 580.4 735.62 656.26 789.48 722.61 751.46 763.78 616.06 782.13 426.88 788.29 244.19 779.69 145.33 763.25 176.33 743.04 330.94 722.13 544.5 703.84 711.28 685.54 754.68 670.73 665.86 656.43 486.04 638.37 300.88 613.69 183.97 575.83 168.99 525.77 258.62 454.48 411.21 359.93 586.77 255.87 730.99 138.82 817.53 23.77 842.67 -65.08 812.25 -117.57 750.38 -114.98 663.62 -56.01 582.05 56.32 519.22 200.83 462.24 334.51 429.47 428.25 417.91 447.79 410.75 380.12 417.72 239.58 436.01 65.05 454.3 -87.22 483.05 -166.11 524.7 -153.31 570.75 -57.21 636.79 91.78 725.47 250.2 820 385.92 931.7 467.3 1046.66 486.98 1136.74 448.08 1193.45 369.1 1192.31 274.17 1129.78 170.7 1007.26 85.4 850.76 27.01 717.19 -11.59 643.94 -22.48 672.29 -13.15 802.58 9.73 998.13 41.02 1185.03 72.56 1280.95 107.44 1241.33 135.82 1074.61 154.12Q1074.5 154.13 1074.5 154.13" opacity="0.77"></path><path d="M1021.5 232.86C700.09 262.13 621.29 341.01 817.34 467.4 1091.58 595.48 1190.07 746.88 1091.94 853.74 873.64 854.65 671.92 721.48 549.43 493.33 467.91 325.97 430.35 330.02 401.08 542.05 371.81 808.64 353.6 916.04 384.39 815.62 456.15 583.91 612.19 365.6 792.12 249.95 851.89 238.89 722.35 298.48 426.66 359.97 209.15 435.11 276.09 464.59 597.5 435.32 806.71 406.05 685.01 320.8 407.7 194.93 225.24 82.71 293.05 -22.55 501.29 -49.85 740.62 27.42 884.87 214.69 938.43 424.94 939.96 503.9 933.44 384.64 962.72 118.05 991.97 -93.97 1054.25 -86.16 1103.47 102.64 1100.67 352.25 1002.12 516.46 801.16 553.92 631.27 485.42 594.45 379.7 798.32 302.35 1097.08 226.69 1230.72 203.58 1021.61 232.85Q1021.5 232.86 1021.5 232.86" opacity="0.33"></path><path d="M968.5 674.39C640.27 715.47 836.73 776.91 1058.2 687.31 1115.17 573.08 1089 421.88 1028.9 289.05 944.48 244.55 879.16 313.56 857.2 489.05 847 764.35 923.12 694.69 833.34 467.84 677.53 324.56 465.37 227.37 290.41 171.94 255.73 134.74 397.7 112.08 650.5 90.12 837.16 68.17 841.8 49.01 695.9 48.16 482.73 65.54 331.52 128.48 289.21 242.98 339.22 366.34 446.34 492.49 550.12 560.64 663.3 523.4 737.07 378.2 759.02 171.05 781 -4.43 749.08 -64.55 673.95 -3.95 608.21 144.96 535.34 319.44 514.07 462.44 585.12 570.69 759.59 625.21 988.85 646.74 1150.88 648.86 1155.19 652.43 968.61 674.38Q968.5 674.39 968.5 674.39" opacity="0.18"></path><path d="M915.5 520.29C549.46 506.96 866.59 216.29 889.09 436.05 859.81 702.66 703.27 803.65 465.59 740.2 316.56 584.26 382.09 446.83 703.5 417.56 912.71 388.29 810.1 472.72 616 590.29 432.32 615.38 386.7 490.66 415.97 224.05 445.24 12.02 543.86 20.28 765.91 157.3 998.38 352.81 1124.71 491.01 915.5 520.29Q915.5 520.29 915.5 520.29" opacity="0.33"></path></g></svg>